<svg width="257" height="74" viewBox="0 0 257 74" fill="none" xmlns="http://www.w3.org/2000/svg">
<g clip-path="url(#clip0)">
<path d="M25.0963 64.7399C25.477 64.7399 25.8504 64.5852 26.1196 64.3164C26.3889 64.0477 26.5445 63.6745 26.5445 63.2946C26.5445 62.9146 26.3895 62.5414 26.1196 62.2727C25.8504 62.0039 25.477 61.8492 25.0963 61.8492C24.7151 61.8492 24.3417 62.0039 24.0725 62.2727C23.8032 62.5414 23.6482 62.9146 23.6482 63.2946C23.6482 63.6745 23.8026 64.0477 24.0725 64.3164C24.3417 64.5852 24.7156 64.7399 25.0963 64.7399Z" fill="black"/>
<path d="M72.7645 71.1094H65.7982L63.1514 66.3873V53.5048C63.1514 50.4668 61.1975 47.8201 58.2899 46.9196L47.1805 43.4779V31.7382C47.1805 30.6474 46.8575 29.6204 46.2913 28.7578C49.4438 27.6727 51.7156 24.6838 51.7156 21.1738C51.7156 16.992 48.4918 13.5487 44.3945 13.1857V7.2356C44.3945 3.24574 41.1425 0 37.1448 0C36.3449 0 35.6967 0.647003 35.6967 1.44531V12.9813C35.6899 12.9813 35.6836 12.9801 35.6768 12.9801C34.4171 12.9547 33.2258 13.425 32.3195 14.2973C31.4133 15.1696 30.9014 16.3422 30.8788 17.5984C30.8312 20.192 32.9073 22.3402 35.506 22.3877L35.5903 22.3894C35.3386 24.7532 34.6371 27.0894 33.5199 29.2393C33.1217 30.006 32.9107 30.8698 32.9107 31.7382V44.169L29.4221 50.4425L10.7321 62.1699C8.95413 63.2855 7.89235 65.2028 7.89235 67.2991V71.1094H1.52053C0.720657 71.1094 0.0723877 71.7564 0.0723877 72.5547C0.0723877 73.353 0.720657 74 1.52053 74H72.7651C73.5644 74 74.2132 73.353 74.2132 72.5547C74.2132 71.7564 73.5644 71.1094 72.7645 71.1094ZM48.8193 21.1738C48.8193 23.7607 46.8915 25.9061 44.3945 26.255V16.0927C46.8915 16.4416 48.8193 18.5869 48.8193 21.1738ZM38.5929 3.13791C40.2837 3.73466 41.4983 5.34596 41.4983 7.2356V27.9363C41.4983 28.5664 41.9067 29.1236 42.5086 29.3139C43.5704 29.6504 44.2842 30.6248 44.2842 31.7382V43.098H35.8075V31.7382C35.8075 31.3255 35.9031 30.9325 36.0909 30.5701C37.728 27.4203 38.5929 23.9171 38.5929 20.4382V3.13791ZM34.283 18.9426C33.9464 18.5943 33.7654 18.1353 33.7745 17.6509C33.783 17.1665 33.9804 16.7142 34.33 16.3778C34.6711 16.0497 35.118 15.8696 35.5903 15.8696C35.6107 15.8696 35.631 15.8702 35.6514 15.8702C35.6667 15.8702 35.6814 15.8685 35.6967 15.868V19.4999L35.5586 19.4976C35.0733 19.4886 34.6202 19.2915 34.283 18.9426ZM21.9789 64.8234C21.6265 64.1069 20.7587 63.8111 20.0403 64.1634L13.6244 67.3087C13.5288 67.3555 13.4388 67.4131 13.3557 67.4797L10.7886 69.5387V67.2991C10.7886 66.2032 11.3436 65.2005 12.2735 64.6168L31.2781 52.6918C31.4846 52.5625 31.6554 52.3824 31.7737 52.1701L35.2113 45.9886H43.0267L38.8435 52.2554C37.0973 54.8711 34.6801 56.986 31.8534 58.3714L28.8553 59.8416C28.1375 60.1933 27.8416 61.0594 28.194 61.7758C28.547 62.4923 29.4148 62.7881 30.1326 62.4358L33.1302 60.9662C36.4156 59.3555 39.2242 56.8979 41.2539 53.8577L42.3909 52.1543L54.2329 56.5078V69.8684C54.2329 70.3009 54.2996 70.7176 54.4235 71.1094H13.4535L15.0454 69.8323L21.3176 66.7576C22.0355 66.4059 22.3313 65.5398 21.9789 64.8234ZM58.3725 71.1094C57.6869 71.1094 57.1291 70.5527 57.1291 69.8684V55.5C57.1291 54.8948 56.7507 54.3528 56.1816 54.1439L44.0427 49.6809L45.6181 47.3204L46.3371 46.2438L57.4318 49.6798C59.1203 50.2032 60.2551 51.7399 60.2551 53.5048V66.7644C60.2551 67.0117 60.3184 67.2545 60.4389 67.4701L62.4793 71.1094H58.3725Z" fill="black"/>
</g>
<path d="M148.799 35.1C145.415 35.1 143.723 36.54 143.723 39.42V39.528H152.651V45.936H143.723V54H135.227V39.6C135.227 35.952 136.343 33.144 138.575 31.176C140.807 29.208 143.975 28.224 148.079 28.224C149.543 28.224 150.923 28.368 152.219 28.656C153.515 28.92 154.631 29.292 155.567 29.772L153.119 36.18C152.447 35.82 151.727 35.556 150.959 35.388C150.215 35.196 149.495 35.1 148.799 35.1ZM159.383 28.8H167.879V47.412H179.255V54H159.383V28.8ZM195.902 54.576C193.19 54.576 190.754 54.012 188.594 52.884C186.434 51.756 184.742 50.196 183.518 48.204C182.294 46.188 181.682 43.92 181.682 41.4C181.682 38.88 182.294 36.624 183.518 34.632C184.742 32.616 186.434 31.044 188.594 29.916C190.754 28.788 193.19 28.224 195.902 28.224C198.614 28.224 201.05 28.788 203.21 29.916C205.37 31.044 207.062 32.616 208.286 34.632C209.51 36.624 210.122 38.88 210.122 41.4C210.122 43.92 209.51 46.188 208.286 48.204C207.062 50.196 205.37 51.756 203.21 52.884C201.05 54.012 198.614 54.576 195.902 54.576ZM195.902 47.7C196.958 47.7 197.906 47.448 198.746 46.944C199.61 46.416 200.294 45.684 200.798 44.748C201.302 43.788 201.554 42.672 201.554 41.4C201.554 40.128 201.302 39.024 200.798 38.088C200.294 37.128 199.61 36.396 198.746 35.892C197.906 35.364 196.958 35.1 195.902 35.1C194.846 35.1 193.886 35.364 193.022 35.892C192.182 36.396 191.51 37.128 191.006 38.088C190.502 39.024 190.25 40.128 190.25 41.4C190.25 42.672 190.502 43.788 191.006 44.748C191.51 45.684 192.182 46.416 193.022 46.944C193.886 47.448 194.846 47.7 195.902 47.7ZM254.786 28.8V43.38C254.786 46.956 253.694 49.716 251.51 51.66C249.35 53.604 246.314 54.576 242.402 54.576C239.186 54.576 236.582 53.784 234.59 52.2C232.622 53.784 230.018 54.576 226.778 54.576C222.89 54.576 219.854 53.604 217.67 51.66C215.51 49.716 214.43 46.956 214.43 43.38V28.8H222.926V43.128C222.926 44.664 223.226 45.816 223.826 46.584C224.426 47.328 225.362 47.7 226.634 47.7C227.906 47.7 228.842 47.328 229.442 46.584C230.042 45.816 230.342 44.664 230.342 43.128V28.8H238.838V43.128C238.838 44.664 239.138 45.816 239.738 46.584C240.362 47.328 241.31 47.7 242.582 47.7C243.854 47.7 244.79 47.328 245.39 46.584C245.99 45.816 246.29 44.664 246.29 43.128V28.8H254.786Z" fill="#98C1D9"/>
<defs>
<clipPath id="clip0">
<rect width="74" height="74" fill="white"/>
</clipPath>
</defs>
</svg>
